<svg width="15" height="14" viewBox="0 0 15 14" fill="none" xmlns="http://www.w3.org/2000/svg">
<path d="M6.57804 8.18548L5.16205 6.76949C5.0413 6.64874 4.88763 6.58837 4.70102 6.58837C4.51442 6.58837 4.36075 6.64874 4.24 6.76949C4.11926 6.89023 4.05889 7.04391 4.05889 7.23051C4.05889 7.41711 4.11926 7.57079 4.24 7.69153L6.11702 9.56855C6.24874 9.70027 6.40241 9.76613 6.57804 9.76613C6.75367 9.76613 6.90734 9.70027 7.03906 9.56855L10.7602 5.84745C10.8809 5.7267 10.9413 5.57303 10.9413 5.38642C10.9413 5.19982 10.8809 5.04615 10.7602 4.9254C10.6394 4.80466 10.4857 4.74429 10.2991 4.74429C10.1125 4.74429 9.95886 4.80466 9.83812 4.9254L6.57804 8.18548ZM7.50008 13.586C6.58902 13.586 5.73283 13.413 4.93154 13.067C4.13024 12.7211 3.43322 12.2519 2.84047 11.6596C2.24773 11.0669 1.77859 10.3698 1.43304 9.56855C1.08749 8.76725 0.914502 7.91107 0.914062 7C0.914062 6.08893 1.08706 5.23275 1.43304 4.43145C1.77903 3.63015 2.24817 2.93313 2.84047 2.34039C3.43322 1.74765 4.13024 1.2785 4.93154 0.932957C5.73283 0.587411 6.58902 0.414418 7.50008 0.413979C8.41115 0.413979 9.26733 0.586971 10.0686 0.932957C10.8699 1.27894 11.567 1.74809 12.1597 2.34039C12.7524 2.93313 13.2218 3.63015 13.5678 4.43145C13.9138 5.23275 14.0865 6.08893 14.0861 7C14.0861 7.91107 13.9131 8.76725 13.5671 9.56855C13.2211 10.3698 12.752 11.0669 12.1597 11.6596C11.567 12.2524 10.8699 12.7217 10.0686 13.0677C9.26733 13.4137 8.41115 13.5865 7.50008 13.586Z" fill="#9667BC"/>
</svg>
